<svg xmlns="http://www.w3.org/2000/svg" xmlns:xlink="http://www.w3.org/1999/xlink" width="467" height="65" viewBox="0 0 467 65"><defs><path id="a" d="M1208.5 3046a4.5 4.5 0 1 1 0 9 4.5 4.5 0 0 1 0-9z"/><path id="b" d="M1252 3000v-1h413v1z"/><path id="c" d="M1252.618 2998.675l.764.646-43 50.998-.764-.643z"/><path id="d" d="M1208.5 3043a7.5 7.5 0 1 1 0 15 7.5 7.5 0 0 1 0-15z"/><path id="g" d="M1664 2995a4 4 0 1 1 0 8 4 4 0 0 1 0-8z"/><mask id="f" width="2" height="2" x="-1" y="-1"><path fill="#fff" d="M1204 3046h9v9h-9z"/><use xlink:href="#a"/></mask><filter id="e" width="37.1" height="39" x="1190" y="3032" filterUnits="userSpaceOnUse"><feOffset dx=".1" dy="2" in="SourceGraphic" result="FeOffset1116Out"/><feGaussianBlur in="FeOffset1116Out" result="FeGaussianBlur1117Out" stdDeviation="1.6 1.6"/></filter></defs><use xlink:href="#b" opacity=".18" transform="translate(-1201 -2995)"/><use xlink:href="#c" opacity=".18" transform="translate(-1201 -2995)"/><use fill="#fff" xlink:href="#d" opacity=".18" transform="translate(-1201 -2995)"/><g transform="translate(-1201 -2995)"><g filter="url(#e)"><use fill="none" stroke-opacity=".31" stroke-width="0" mask="url(&amp;quot;#f&amp;quot;)" xlink:href="#a"/><use fill-opacity=".31" xlink:href="#a"/></g><use fill="#fff" xlink:href="#a"/></g><use xlink:href="#g" transform="translate(-1201 -2995)"/></svg>