<svg xmlns="http://www.w3.org/2000/svg" xmlns:xlink="http://www.w3.org/1999/xlink" width="165" height="36" viewBox="0 0 165 36"><defs><path id="a" d="M1049.5 3145a4.5 4.5 0 1 1 0 9 4.5 4.5 0 0 1 0-9z"/><path id="b" d="M897 3175v-1h128v1z"/><path id="c" d="M1025.36 3174.345l-.72-.694 24-25 .72.694z"/><path id="d" d="M1049.5 3142a7.5 7.5 0 1 1 0 15 7.5 7.5 0 0 1 0-15z"/><path id="g" d="M896 3170a4 4 0 1 1 0 8 4 4 0 0 1 0-8z"/><mask id="f" width="2" height="2" x="-1" y="-1"><path fill="#fff" d="M1045 3145h9v9h-9z"/><use xlink:href="#a"/></mask><filter id="e" width="37.1" height="39" x="1031" y="3131" filterUnits="userSpaceOnUse"><feOffset dx=".1" dy="2" in="SourceGraphic" result="FeOffset1200Out"/><feGaussianBlur in="FeOffset1200Out" result="FeGaussianBlur1201Out" stdDeviation="1.6 1.6"/></filter></defs><use xlink:href="#b" opacity=".18" transform="translate(-892 -3142)"/><use xlink:href="#c" opacity=".18" transform="translate(-892 -3142)"/><use fill="#fff" xlink:href="#d" opacity=".18" transform="translate(-892 -3142)"/><g transform="translate(-892 -3142)"><g filter="url(#e)"><use fill="none" stroke-opacity=".31" stroke-width="0" mask="url(&amp;quot;#f&amp;quot;)" xlink:href="#a"/><use fill-opacity=".31" xlink:href="#a"/></g><use fill="#fff" xlink:href="#a"/></g><use xlink:href="#g" transform="translate(-892 -3142)"/></svg>