<svg xmlns="http://www.w3.org/2000/svg" xmlns:xlink="http://www.w3.org/1999/xlink" width="192" height="70" viewBox="0 0 192 70"><defs><path id="a" d="M1041.5 3098a4.5 4.5 0 1 1 0 9 4.5 4.5 0 0 1 0-9z"/><path id="b" d="M863 3047v-1h92v1z"/><path id="c" d="M953.731 3047.42l.537-.844 88 56-.536.845z"/><path id="d" d="M1041.5 3095a7.5 7.5 0 1 1 0 15 7.5 7.5 0 0 1 0-15z"/><path id="g" d="M861 3042a4 4 0 1 1 0 8 4 4 0 0 1 0-8z"/><mask id="f" width="2" height="2" x="-1" y="-1"><path fill="#fff" d="M1037 3098h9v9h-9z"/><use xlink:href="#a"/></mask><filter id="e" width="37.1" height="39" x="1023" y="3084" filterUnits="userSpaceOnUse"><feOffset dx=".1" dy="2" in="SourceGraphic" result="FeOffset1242Out"/><feGaussianBlur in="FeOffset1242Out" result="FeGaussianBlur1243Out" stdDeviation="1.6 1.6"/></filter></defs><use xlink:href="#b" opacity=".18" transform="translate(-857 -3042)"/><use xlink:href="#c" opacity=".18" transform="translate(-857 -3042)"/><use fill="#fff" xlink:href="#d" opacity=".18" transform="translate(-857 -3042)"/><g transform="translate(-857 -3042)"><g filter="url(#e)"><use fill="none" stroke-opacity=".31" stroke-width="0" mask="url(&amp;quot;#f&amp;quot;)" xlink:href="#a"/><use fill-opacity=".31" xlink:href="#a"/></g><use fill="#fff" xlink:href="#a"/></g><use xlink:href="#g" transform="translate(-857 -3042)"/></svg>