<svg xmlns="http://www.w3.org/2000/svg" xmlns:xlink="http://www.w3.org/1999/xlink" width="170" height="67" viewBox="0 0 170 67"><defs><path id="a" d="M1027.5 3002a4.5 4.5 0 1 1 0 9 4.5 4.5 0 0 1 0-9z"/><path id="b" d="M871 2954v-1h95v1z"/><path id="c" d="M964.668 2953.372l.663-.748 61 54-.663.748z"/><path id="d" d="M1027.5 2999a7.5 7.5 0 1 1 0 15 7.5 7.5 0 0 1 0-15z"/><path id="g" d="M869 2949a4 4 0 1 1 0 8 4 4 0 0 1 0-8z"/><mask id="f" width="2" height="2" x="-1" y="-1"><path fill="#fff" d="M1023 3002h9v9h-9z"/><use xlink:href="#a"/></mask><filter id="e" width="37.1" height="39" x="1009" y="2988" filterUnits="userSpaceOnUse"><feOffset dx=".1" dy="2" in="SourceGraphic" result="FeOffset1284Out"/><feGaussianBlur in="FeOffset1284Out" result="FeGaussianBlur1285Out" stdDeviation="1.6 1.6"/></filter></defs><use xlink:href="#b" opacity=".18" transform="translate(-865 -2949)"/><use xlink:href="#c" opacity=".18" transform="translate(-865 -2949)"/><use fill="#fff" xlink:href="#d" opacity=".18" transform="translate(-865 -2949)"/><g transform="translate(-865 -2949)"><g filter="url(#e)"><use fill="none" stroke-opacity=".31" stroke-width="0" mask="url(&amp;quot;#f&amp;quot;)" xlink:href="#a"/><use fill-opacity=".31" xlink:href="#a"/></g><use fill="#fff" xlink:href="#a"/></g><use xlink:href="#g" transform="translate(-865 -2949)"/></svg>