<svg xmlns="http://www.w3.org/2000/svg" xmlns:xlink="http://www.w3.org/1999/xlink" width="225" height="105" viewBox="0 0 225 105"><defs><path id="a" d="M1044.5 2951a4.5 4.5 0 1 1 0 9 4.5 4.5 0 0 1 0-9z"/><path id="b" d="M834 2864v-1h90v1z"/><path id="c" d="M923.7 2864.397l.6-.798 120 89.999-.6.8z"/><path id="d" d="M1044.5 2948a7.5 7.5 0 1 1 0 15 7.5 7.5 0 0 1 0-15z"/><path id="g" d="M831 2860a4 4 0 1 1 0 8 4 4 0 0 1 0-8z"/><mask id="f" width="2" height="2" x="-1" y="-1"><path fill="#fff" d="M1040 2951h9v9h-9z"/><use xlink:href="#a"/></mask><filter id="e" width="37.1" height="39" x="1026" y="2937" filterUnits="userSpaceOnUse"><feOffset dx=".1" dy="2" in="SourceGraphic" result="FeOffset1326Out"/><feGaussianBlur in="FeOffset1326Out" result="FeGaussianBlur1327Out" stdDeviation="1.6 1.6"/></filter></defs><use xlink:href="#b" opacity=".18" transform="translate(-827 -2860)"/><use xlink:href="#c" opacity=".18" transform="translate(-827 -2860)"/><use fill="#fff" xlink:href="#d" opacity=".18" transform="translate(-827 -2860)"/><g transform="translate(-827 -2860)"><g filter="url(#e)"><use fill="none" stroke-opacity=".31" stroke-width="0" mask="url(&amp;quot;#f&amp;quot;)" xlink:href="#a"/><use fill-opacity=".31" xlink:href="#a"/></g><use fill="#fff" xlink:href="#a"/></g><use xlink:href="#g" transform="translate(-827 -2860)"/></svg>