<svg xmlns="http://www.w3.org/2000/svg" xmlns:xlink="http://www.w3.org/1999/xlink" width="255" height="80" viewBox="0 0 255 80"><defs><path id="a" d="M1047.5 2848a4.5 4.5 0 1 1 0 9 4.5 4.5 0 0 1 0-9z"/><path id="b" d="M807 2787v-1h144v1z"/><path id="c" d="M950.717 2787.41l.566-.824 96 65.998-.566.825z"/><path id="d" d="M1047.5 2845a7.5 7.5 0 1 1 0 15 7.5 7.5 0 0 1 0-15z"/><path id="g" d="M804 2782a4 4 0 1 1 0 8 4 4 0 0 1 0-8z"/><mask id="f" width="2" height="2" x="-1" y="-1"><path fill="#fff" d="M1043 2848h9v9h-9z"/><use xlink:href="#a"/></mask><filter id="e" width="37.1" height="39" x="1029" y="2834" filterUnits="userSpaceOnUse"><feOffset dx=".1" dy="2" in="SourceGraphic" result="FeOffset1368Out"/><feGaussianBlur in="FeOffset1368Out" result="FeGaussianBlur1369Out" stdDeviation="1.6 1.6"/></filter></defs><use xlink:href="#b" opacity=".18" transform="translate(-800 -2782)"/><use xlink:href="#c" opacity=".18" transform="translate(-800 -2782)"/><use fill="#fff" xlink:href="#d" opacity=".18" transform="translate(-800 -2782)"/><g transform="translate(-800 -2782)"><g filter="url(#e)"><use fill="none" stroke-opacity=".31" stroke-width="0" mask="url(&amp;quot;#f&amp;quot;)" xlink:href="#a"/><use fill-opacity=".31" xlink:href="#a"/></g><use fill="#fff" xlink:href="#a"/></g><use xlink:href="#g" transform="translate(-800 -2782)"/></svg>