<svg xmlns="http://www.w3.org/2000/svg" xmlns:xlink="http://www.w3.org/1999/xlink" width="179" height="135" viewBox="0 0 179 135"><defs><path id="2gs9a" d="M1158.5 2879a4.5 4.5 0 1 1 0 9 4.5 4.5 0 0 1 0-9z"/><path id="2gs9b" d="M1225 2763v-1h98v1z"/><path id="2gs9c" d="M1224.563 2761.755l.874.487-68 122-.874-.488z"/><path id="2gs9d" d="M1158.5 2876a7.5 7.5 0 1 1 0 15 7.5 7.5 0 0 1 0-15z"/><path id="2gs9g" d="M1326 2758a4 4 0 1 1 0 8 4 4 0 0 1 0-8z"/><mask id="2gs9f" width="2" height="2" x="-1" y="-1"><path fill="#fff" d="M1154 2879h9v9h-9z"/><use xlink:href="#2gs9a"/></mask><filter id="2gs9e" width="37.1" height="39" x="1140" y="2865" filterUnits="userSpaceOnUse"><feOffset dx=".1" dy="2" in="SourceGraphic" result="FeOffset1494Out"/><feGaussianBlur in="FeOffset1494Out" result="FeGaussianBlur1495Out" stdDeviation="1.6 1.6"/></filter></defs><g><g transform="translate(-1151 -2758)"><g opacity=".28"><use xlink:href="#2gs9b"/></g><g opacity=".28"><use xlink:href="#2gs9c"/></g><g opacity=".18"><use fill="#fff" xlink:href="#2gs9d"/></g><g><g filter="url(#2gs9e)"><use fill="none" stroke-opacity=".31" stroke-width="0" mask="url(&quot;#2gs9f&quot;)" xlink:href="#2gs9a"/><use fill-opacity=".31" xlink:href="#2gs9a"/></g><use fill="#fff" xlink:href="#2gs9a"/></g><g><use xlink:href="#2gs9g"/></g></g></g></svg>