<svg xmlns="http://www.w3.org/2000/svg" xmlns:xlink="http://www.w3.org/1999/xlink" width="165" height="36" viewBox="0 0 165 36"><defs><path id="4x63a" d="M1049.5 3145a4.5 4.5 0 1 1 0 9 4.5 4.5 0 0 1 0-9z"/><path id="4x63b" d="M897 3175v-1h128v1z"/><path id="4x63c" d="M1025.36 3174.345l-.72-.694 24-25 .72.694z"/><path id="4x63d" d="M1049.5 3142a7.5 7.5 0 1 1 0 15 7.5 7.5 0 0 1 0-15z"/><path id="4x63g" d="M896 3170a4 4 0 1 1 0 8 4 4 0 0 1 0-8z"/><mask id="4x63f" width="2" height="2" x="-1" y="-1"><path fill="#fff" d="M1045 3145h9v9h-9z"/><use xlink:href="#4x63a"/></mask><filter id="4x63e" width="37.1" height="39" x="1031" y="3131" filterUnits="userSpaceOnUse"><feOffset dx=".1" dy="2" in="SourceGraphic" result="FeOffset1200Out"/><feGaussianBlur in="FeOffset1200Out" result="FeGaussianBlur1201Out" stdDeviation="1.6 1.6"/></filter></defs><g><g transform="translate(-892 -3142)"><g opacity=".18"><use xlink:href="#4x63b"/></g><g opacity=".18"><use xlink:href="#4x63c"/></g><g opacity=".18"><use fill="#fff" xlink:href="#4x63d"/></g><g><g filter="url(#4x63e)"><use fill="none" stroke-opacity=".31" stroke-width="0" mask="url(&quot;#4x63f&quot;)" xlink:href="#4x63a"/><use fill-opacity=".31" xlink:href="#4x63a"/></g><use fill="#fff" xlink:href="#4x63a"/></g><g><use xlink:href="#4x63g"/></g></g></g></svg>