<svg xmlns="http://www.w3.org/2000/svg" xmlns:xlink="http://www.w3.org/1999/xlink" width="95" height="85" viewBox="0 0 95 85"><defs><path id="1a1xa" d="M1098.5 2832a4.5 4.5 0 1 1 0 9 4.5 4.5 0 0 1 0-9z"/><path id="1a1xb" d="M1047 2766v-1h88v1z"/><path id="1a1xc" d="M1134.558 2764.765l.884.466-37 70-.884-.468z"/><path id="1a1xd" d="M1098.5 2829a7.5 7.5 0 1 1 0 15 7.5 7.5 0 0 1 0-15z"/><path id="1a1xg" d="M1045 2761a4 4 0 1 1 0 8 4 4 0 0 1 0-8z"/><mask id="1a1xf" width="2" height="2" x="-1" y="-1"><path fill="#fff" d="M1094 2832h9v9h-9z"/><use xlink:href="#1a1xa"/></mask><filter id="1a1xe" width="37.1" height="39" x="1080" y="2818" filterUnits="userSpaceOnUse"><feOffset dx=".1" dy="2" in="SourceGraphic" result="FeOffset1536Out"/><feGaussianBlur in="FeOffset1536Out" result="FeGaussianBlur1537Out" stdDeviation="1.6 1.6"/></filter></defs><g><g transform="translate(-1041 -2761)"><g opacity=".18"><use xlink:href="#1a1xb"/></g><g opacity=".18"><use xlink:href="#1a1xc"/></g><g opacity=".18"><use fill="#fff" xlink:href="#1a1xd"/></g><g><g filter="url(#1a1xe)"><use fill="none" stroke-opacity=".31" stroke-width="0" mask="url(&quot;#1a1xf&quot;)" xlink:href="#1a1xa"/><use fill-opacity=".31" xlink:href="#1a1xa"/></g><use fill="#fff" xlink:href="#1a1xa"/></g><g><use xlink:href="#1a1xg"/></g></g></g></svg>