<svg xmlns="http://www.w3.org/2000/svg" xmlns:xlink="http://www.w3.org/1999/xlink" width="255" height="80" viewBox="0 0 255 80"><defs><path id="3bmta" d="M1047.5 2848a4.5 4.5 0 1 1 0 9 4.5 4.5 0 0 1 0-9z"/><path id="3bmtb" d="M807 2787v-1h144v1z"/><path id="3bmtc" d="M950.717 2787.41l.566-.824 96 65.998-.566.825z"/><path id="3bmtd" d="M1047.5 2845a7.5 7.5 0 1 1 0 15 7.5 7.5 0 0 1 0-15z"/><path id="3bmtg" d="M804 2782a4 4 0 1 1 0 8 4 4 0 0 1 0-8z"/><mask id="3bmtf" width="2" height="2" x="-1" y="-1"><path fill="#fff" d="M1043 2848h9v9h-9z"/><use xlink:href="#3bmta"/></mask><filter id="3bmte" width="37.1" height="39" x="1029" y="2834" filterUnits="userSpaceOnUse"><feOffset dx=".1" dy="2" in="SourceGraphic" result="FeOffset1368Out"/><feGaussianBlur in="FeOffset1368Out" result="FeGaussianBlur1369Out" stdDeviation="1.6 1.6"/></filter></defs><g><g transform="translate(-800 -2782)"><g opacity=".18"><use xlink:href="#3bmtb"/></g><g opacity=".18"><use xlink:href="#3bmtc"/></g><g opacity=".18"><use fill="#fff" xlink:href="#3bmtd"/></g><g><g filter="url(#3bmte)"><use fill="none" stroke-opacity=".31" stroke-width="0" mask="url(&quot;#3bmtf&quot;)" xlink:href="#3bmta"/><use fill-opacity=".31" xlink:href="#3bmta"/></g><use fill="#fff" xlink:href="#3bmta"/></g><g><use xlink:href="#3bmtg"/></g></g></g></svg>