<svg xmlns="http://www.w3.org/2000/svg" xmlns:xlink="http://www.w3.org/1999/xlink" width="276" height="101" viewBox="0 0 276 101"><defs><path id="1k8fa" d="M1258.5 3166a4.5 4.5 0 1 1 0 9 4.5 4.5 0 0 1 0-9z"/><path id="1k8fb" d="M997 3261v-1h221v1z"/><path id="1k8fc" d="M1217.549 3259.782l.902.432 41-86.002-.902-.43z"/><path id="1k8fd" d="M1258.5 3163a7.5 7.5 0 1 1 0 15 7.5 7.5 0 0 1 0-15z"/><path id="1k8fg" d="M994 3256a4 4 0 1 1 0 8 4 4 0 0 1 0-8z"/><mask id="1k8ff" width="2" height="2" x="-1" y="-1"><path fill="#fff" d="M1254 3166h9v9h-9z"/><use xlink:href="#1k8fa"/></mask><filter id="1k8fe" width="37.1" height="39" x="1240" y="3152" filterUnits="userSpaceOnUse"><feOffset dx=".1" dy="2" in="SourceGraphic" result="FeOffset1074Out"/><feGaussianBlur in="FeOffset1074Out" result="FeGaussianBlur1075Out" stdDeviation="1.6 1.6"/></filter></defs><g><g transform="translate(-990 -3163)"><g opacity=".18"><use xlink:href="#1k8fb"/></g><g opacity=".18"><use xlink:href="#1k8fc"/></g><g opacity=".18"><use fill="#fff" xlink:href="#1k8fd"/></g><g><g filter="url(#1k8fe)"><use fill="none" stroke-opacity=".31" stroke-width="0" mask="url(&quot;#1k8ff&quot;)" xlink:href="#1k8fa"/><use fill-opacity=".31" xlink:href="#1k8fa"/></g><use fill="#fff" xlink:href="#1k8fa"/></g><g><use xlink:href="#1k8fg"/></g></g></g></svg>