<svg xmlns="http://www.w3.org/2000/svg" xmlns:xlink="http://www.w3.org/1999/xlink" width="137" height="86" viewBox="0 0 137 86"><defs><path id="em39a" d="M1538.5 2867a4.5 4.5 0 1 1 0 9 4.5 4.5 0 0 1 0-9z"/><path id="em39b" d="M1539 2800v-1h122v1z"/><path id="em39c" d="M1539 2871v-71h1v71z"/><path id="em39d" d="M1538.5 2864a7.5 7.5 0 1 1 0 15 7.5 7.5 0 0 1 0-15z"/><path id="em39g" d="M1664 2795a4 4 0 1 1 0 8 4 4 0 0 1 0-8z"/><mask id="em39f" width="2" height="2" x="-1" y="-1"><path fill="#fff" d="M1534 2867h9v9h-9z"/><use xlink:href="#em39a"/></mask><filter id="em39e" width="37.1" height="39" x="1520" y="2853" filterUnits="userSpaceOnUse"><feOffset dx=".1" dy="2" in="SourceGraphic" result="FeOffset1410Out"/><feGaussianBlur in="FeOffset1410Out" result="FeGaussianBlur1411Out" stdDeviation="1.6 1.6"/></filter></defs><g><g transform="translate(-1531 -2795)"><g opacity=".18"><use xlink:href="#em39b"/></g><g opacity=".18"><use xlink:href="#em39c"/></g><g opacity=".18"><use fill="#fff" xlink:href="#em39d"/></g><g><g filter="url(#em39e)"><use fill="none" stroke-opacity=".31" stroke-width="0" mask="url(&quot;#em39f&quot;)" xlink:href="#em39a"/><use fill-opacity=".31" xlink:href="#em39a"/></g><use fill="#fff" xlink:href="#em39a"/></g><g><use xlink:href="#em39g"/></g></g></g></svg>